<?xml version="1.0" encoding="UTF-8"?><svg xmlns="http://www.w3.org/2000/svg" xmlns:xlink="http://www.w3.org/1999/xlink" width="1500pt" zoomAndPan="magnify" viewBox="0 0 1500 1499.999933" height="1499.999933pt" preserveAspectRatio="xMidYMid meet" version="1.2"><defs><clipPath xml:id="clip1" id="clip1"><path d="M 202.46875 467.335938 L 1297.410156 467.335938 L 1297.410156 1028 L 202.46875 1028 Z M 202.46875 467.335938 "/></clipPath></defs><g xml:id="surface1" id="surface1"><g clip-rule="nonzero" clip-path="url(#clip1)"><path style=" stroke:none;fill-rule:nonzero;fill:rgb(1.568604%,2.349854%,2.349854%);fill-opacity:1;" d="M 1297.085938 524.445312 C 1297.085938 499.871094 1262.472656 475.886719 1236.816406 475.886719 C 1206.488281 475.886719 1194.847656 484.476562 1174.730469 484.476562 C 1172.21875 484.476562 1169.304688 484.417969 1166.089844 484.324219 C 1162.257812 484.210938 1158.789062 482.066406 1156.898438 478.722656 C 1153.128906 472.046875 1144.117188 467.347656 1133.59375 467.347656 C 1124.097656 467.347656 1115.84375 471.171875 1111.550781 476.820312 C 1109.347656 479.714844 1105.976562 481.480469 1102.339844 481.347656 C 1096.441406 481.125 1091.082031 480.988281 1086.648438 480.988281 C 1026.613281 480.988281 1005.789062 570.929688 958.007812 570.492188 C 929.589844 570.234375 924.789062 548.746094 848.964844 553.324219 C 820.421875 555.046875 801.269531 561.183594 786.738281 566.851562 C 768.972656 573.785156 749.703125 575.894531 730.851562 572.984375 C 655.5 561.371094 628.050781 604.886719 618.722656 613.851562 C 618.722656 613.851562 233.058594 582.09375 202.792969 755.101562 C 321.667969 635.191406 573.949219 740.535156 610.175781 766.199219 C 646.40625 791.863281 657.625 780.375 686.296875 793.492188 C 696.238281 798.039062 707.3125 800.769531 719.144531 802.082031 C 715.820312 815.488281 715.816406 828.800781 715.816406 849.945312 C 715.816406 889.179688 675.789062 877.738281 691.308594 914.523438 C 706.828125 951.304688 710.097656 970.105469 704.378906 999.535156 C 698.660156 1028.960938 767.035156 1027.761719 767.035156 1027.761719 C 767.035156 1027.761719 750.9375 1015.878906 747.667969 1003.617188 C 760.734375 1010.15625 790.894531 1032.96875 808.871094 1026.425781 C 806.78125 1008.773438 794.230469 1000.351562 794.230469 1000.351562 L 830.164062 1010.15625 C 822 988.90625 810.5625 983.183594 778.707031 979.097656 C 746.851562 975.007812 733.621094 927.574219 734.597656 907.980469 C 736.5 869.992188 780.046875 856.027344 801.488281 817.480469 C 803.234375 823.660156 805.304688 830.441406 807.695312 838.25 C 820.375 879.714844 781.191406 878.488281 806.839844 913.148438 C 832.488281 947.808594 841.457031 966.792969 845.898438 999.441406 C 850.339844 1032.09375 910.574219 1012.261719 910.574219 1012.261719 C 910.574219 1012.261719 892.464844 1004.074219 885.601562 992.007812 C 899.304688 995.367188 933.414062 1011.285156 947.234375 999.492188 C 939.679688 981.402344 925.824219 975.90625 925.824219 975.90625 L 960.863281 976.515625 C 946.75 956.273438 934.761719 953.332031 905.199219 957.660156 C 875.632812 961.992188 848.574219 915.453125 843.105469 894.484375 C 832.023438 851.941406 869.859375 824.804688 873.882812 774.074219 C 897.082031 766.492188 917.917969 759.222656 933.941406 754.863281 C 965.175781 797.9375 971.363281 798.355469 976.644531 800.074219 C 978.761719 800.765625 989.660156 801.019531 991.796875 801.632812 C 1001.679688 804.480469 1011.167969 814.230469 1011.167969 814.230469 C 1011.167969 814.230469 1013.890625 803.6875 1000.972656 792.796875 C 991.445312 784.769531 986.167969 782.851562 984.058594 782.394531 C 983.730469 782.324219 983.6875 781.886719 983.988281 781.742188 C 987.4375 780.136719 998.414062 779.964844 1007.667969 789.066406 C 1003.703125 772.355469 993.832031 765.246094 974.796875 775.792969 C 968.855469 769.53125 967.796875 761.828125 957.070312 749.242188 C 964.375 746.878906 970.421875 743.679688 975.492188 740.035156 C 996.425781 766.410156 1001.410156 766.871094 1005.730469 768.226562 C 1007.703125 768.84375 1017.832031 769.070312 1019.824219 769.621094 C 1029.011719 772.171875 1037.832031 780.890625 1037.832031 780.890625 C 1037.832031 780.890625 1040.363281 771.457031 1028.351562 761.71875 C 1019.492188 754.535156 1014.589844 752.816406 1012.628906 752.40625 C 1012.324219 752.34375 1012.28125 751.949219 1012.5625 751.828125 C 1015.765625 750.386719 1025.972656 750.234375 1034.578125 758.375 C 1030.890625 743.429688 1021.714844 737.0625 1004.011719 746.5 C 998.957031 741.375 997.683594 735.160156 989.878906 725.519531 C 1000.117188 711.207031 1002.296875 696.667969 1005.960938 696.167969 C 1050.339844 691.429688 1104.777344 647.316406 1109.808594 639.914062 C 1136.433594 653.535156 1153.886719 647.90625 1156.257812 644.652344 C 1162.765625 648.5 1189.691406 665.378906 1221.050781 677.8125 C 1252.414062 690.246094 1263.359375 656.496094 1267.503906 648.5 C 1267.503906 648.5 1265.441406 647.730469 1261.953125 646.359375 C 1262.082031 646.039062 1262.214844 645.722656 1262.335938 645.402344 C 1264.519531 639.464844 1265.414062 633.410156 1265.074219 627.667969 C 1262.65625 633.039062 1258.226562 638.167969 1252.023438 641.851562 C 1251.863281 641.949219 1251.6875 642.03125 1251.519531 642.128906 C 1250.894531 641.867188 1250.25 641.59375 1249.597656 641.320312 C 1251.179688 636.175781 1251.808594 630.988281 1251.519531 626.03125 C 1249.554688 630.386719 1246.253906 634.570312 1241.769531 637.964844 C 1239.664062 637.042969 1237.496094 636.078125 1235.277344 635.070312 C 1237.417969 629.183594 1238.296875 623.1875 1237.960938 617.492188 C 1235.71875 622.480469 1231.722656 627.238281 1226.199219 630.84375 C 1224.617188 630.082031 1223.03125 629.308594 1221.441406 628.523438 C 1221.511719 628.335938 1221.597656 628.144531 1221.664062 627.953125 C 1223.847656 622.019531 1224.746094 615.96875 1224.40625 610.226562 C 1222.109375 615.320312 1217.984375 620.183594 1212.269531 623.820312 C 1210.632812 622.945312 1209.011719 622.0625 1207.421875 621.167969 C 1207.65625 620.585938 1207.894531 620.003906 1208.109375 619.417969 C 1210.292969 613.488281 1211.1875 607.429688 1210.847656 601.6875 C 1208.476562 606.960938 1204.152344 611.992188 1198.121094 615.664062 C 1196.761719 614.808594 1195.453125 613.949219 1194.183594 613.085938 C 1194.308594 612.773438 1194.441406 612.464844 1194.554688 612.152344 C 1196.738281 606.214844 1197.632812 600.160156 1197.292969 594.417969 C 1195.15625 599.160156 1191.453125 603.703125 1186.347656 607.242188 C 1182.902344 604.355469 1180.175781 601.507812 1178.449219 598.761719 C 1178.449219 598.761719 1170.753906 560.273438 1184.953125 546.058594 C 1184.953125 546.058594 1185.480469 546.070312 1186.433594 546.089844 C 1190.558594 548.601562 1194.007812 551.660156 1196.683594 554.988281 C 1201.210938 560.605469 1203.570312 566.960938 1203.960938 572.832031 C 1206.28125 567.574219 1207.558594 561.589844 1207.582031 555.265625 C 1207.597656 552.867188 1207.425781 550.417969 1207.070312 547.941406 C 1208.882812 549.507812 1210.515625 551.164062 1211.921875 552.910156 C 1216.453125 558.527344 1218.808594 564.882812 1219.203125 570.761719 C 1221.523438 565.5 1222.800781 559.515625 1222.824219 553.191406 C 1222.835938 550.714844 1222.648438 548.179688 1222.265625 545.621094 C 1222.765625 545.597656 1223.265625 545.582031 1223.769531 545.554688 C 1225.179688 546.859375 1226.460938 548.230469 1227.605469 549.652344 C 1232.132812 555.273438 1234.492188 561.621094 1234.882812 567.5 C 1237.203125 562.238281 1238.476562 556.253906 1238.507812 549.929688 C 1238.511719 548.203125 1238.421875 546.453125 1238.238281 544.6875 C 1238.851562 544.640625 1239.464844 544.589844 1240.078125 544.542969 C 1241.066406 545.527344 1242 546.53125 1242.84375 547.578125 C 1247.375 553.195312 1249.730469 559.550781 1250.125 565.429688 C 1252.441406 560.167969 1253.71875 554.179688 1253.746094 547.855469 C 1253.753906 546.320312 1253.679688 544.761719 1253.542969 543.195312 C 1254.753906 543.046875 1255.957031 542.894531 1257.148438 542.726562 C 1257.621094 543.257812 1258.09375 543.777344 1258.527344 544.316406 C 1263.054688 549.9375 1265.414062 556.289062 1265.804688 562.167969 C 1268.089844 556.984375 1269.359375 551.089844 1269.417969 544.863281 C 1270.261719 545.726562 1271.070312 546.605469 1271.800781 547.519531 C 1276.332031 553.136719 1278.6875 559.492188 1279.082031 565.367188 C 1281.398438 560.105469 1282.675781 554.121094 1282.699219 547.796875 C 1282.71875 544.445312 1282.367188 541 1281.671875 537.519531 C 1291 534.394531 1297.085938 530.167969 1297.085938 524.445312 "/></g></g></svg>